<svg xmlns="http://www.w3.org/2000/svg" width="32" height="32" viewBox="0 0 32 32">
  <g fill="none" stroke="#1a1714" stroke-width="0.9" stroke-linecap="round" stroke-linejoin="round">
    <!-- outline, drawn as broken segments so the edges look cracked -->
    <path d="M10 29 Q10.2 26 12.1 22.6" />
    <path d="M12.1 22.6 Q15 18.5 17 17.4" />
    <path d="M17.7 16.5 Q22 12.5 26.3 8.5" />
    <path d="M26.3 8.5 Q28.6 10.2 30.5 12.7" />
    <path d="M30.5 12.7 Q29.4 14 27.8 15.4" />
    <path d="M27 16.2 Q21.5 21.8 16.4 26.9" />
    <path d="M16.4 26.9 Q13 28.4 10 29" />
    <!-- sharpened-wood collar, also cracked -->
    <path d="M12.1 22.6 Q13.5 23.8 14.6 25" />
    <path d="M15 25.4 Q15.8 26.1 16.4 26.9" />
    <!-- ferrule bands -->
    <path d="M22 12.7 Q24.2 14.9 26.3 17" />
    <path d="M23.4 11.3 Q25.6 13.4 27.7 15.6" />
  </g>
  <!-- solid graphite tip -->
  <polygon points="10,29 11.1,25.8 13.2,27.9" fill="#1a1714" />
</svg>
